<?xml version="1.0" standalone="no"?>
<!DOCTYPE svg PUBLIC "-//W3C//DTD SVG 20010904//EN"
 "http://www.w3.org/TR/2001/REC-SVG-20010904/DTD/svg10.dtd">
<svg version="1.0" xmlns="http://www.w3.org/2000/svg"
 width="1024.000000pt" height="1024.000000pt" viewBox="0 0 1024.000000 1024.000000"
 preserveAspectRatio="xMidYMid meet">

<g transform="translate(0.000000,1024.000000) scale(0.100000,-0.100000)"
fill="#000000" stroke="none">
<path d="M0 5120 l0 -5120 5120 0 5120 0 0 5120 0 5120 -5120 0 -5120 0 0
-5120z m5425 2916 c99 -17 247 -60 370 -107 333 -127 665 -411 857 -734 183
-307 269 -668 239 -1006 -7 -73 -16 -140 -21 -148 -6 -11 -7 0 -5 29 3 25 2
36 -1 25 -4 -11 -9 -22 -13 -25 -4 -3 -19 -61 -34 -129 -45 -204 -145 -436
-258 -601 -80 -118 -237 -289 -333 -364 -292 -228 -590 -344 -969 -377 -322
-29 -667 55 -998 242 -300 170 -597 498 -723 800 -27 63 -56 132 -67 154 l-19
40 6 -45 c4 -25 10 -49 14 -55 5 -5 12 -28 16 -50 4 -22 24 -76 45 -120 43
-92 61 -135 54 -135 -8 0 -91 171 -118 245 -75 201 -107 381 -107 603 0 171
15 285 65 481 36 146 41 159 133 351 116 246 340 492 606 668 75 49 228 126
341 170 98 39 321 94 410 102 127 12 404 4 510 -14z m-1646 -2841 c22 -22 41
-47 43 -55 2 -8 10 -21 18 -28 13 -11 12 -11 -7 -3 -11 6 -52 50 -89 98 -88
114 -96 128 -45 73 22 -25 59 -63 80 -85z m181 -200 c19 -19 32 -35 29 -35 -3
0 -20 16 -39 35 -19 19 -32 35 -29 35 3 0 20 -16 39 -35z m65 -55 c10 -11 16
-20 13 -20 -3 0 -13 9 -23 20 -10 11 -16 20 -13 20 3 0 13 -9 23 -20z m2090
-108 c-18 -15 -85 -54 -85 -48 0 3 19 16 43 30 43 26 59 33 42 18z m-1810 -72
c3 -6 -1 -7 -9 -4 -18 7 -21 14 -7 14 6 0 13 -4 16 -10z m53 -26 c34 -17 43
-27 15 -17 -20 7 -60 33 -52 33 3 0 20 -7 37 -16z m1602 6 c-8 -5 -19 -10 -25
-10 -5 0 -3 5 5 10 8 5 20 10 25 10 6 0 3 -5 -5 -10z m-75 -36 c-21 -16 -175
-67 -182 -60 -2 2 15 11 39 19 24 8 68 24 98 35 67 25 70 26 45 6z m-1405 -20
c41 -14 86 -32 100 -40 l25 -15 -25 7 c-38 10 -180 65 -180 70 0 6 1 6 80 -22z
m300 -95 c16 -6 10 -7 -20 -3 -25 4 -54 10 -65 15 -24 10 48 0 85 -12z m813
14 c-7 -2 -19 -2 -25 0 -7 3 -2 5 12 5 14 0 19 -2 13 -5z m-740 -30 c-7 -2
-21 -2 -30 0 -10 3 -4 5 12 5 17 0 24 -2 18 -5z m467 -227 c0 -57 -14 -146
-22 -146 -6 0 -8 6 -5 13 3 8 8 44 12 80 l7 67 -26 0 c-26 0 -26 -1 -26 -77
l0 -78 -94 3 c-52 2 -118 -1 -147 -7 -29 -6 -53 -10 -54 -9 -1 2 0 42 3 91 l5
87 173 0 174 0 0 -24z m-559 -179 c-10 -9 -11 -8 -5 6 3 10 9 15 12 12 3 -3 0
-11 -7 -18z m580 -210 c44 -18 89 -71 89 -104 0 -24 -3 -25 -45 -21 l-45 3 5
-215 c3 -118 7 -368 10 -555 5 -383 5 -388 -68 -452 -44 -38 -92 -53 -172 -52
-75 0 -119 22 -211 107 l-69 64 -3 556 c-2 394 0 563 8 583 14 32 53 71 95 94
26 14 55 16 201 12 117 -4 181 -10 205 -20z"/>
<path d="M4995 7708 c-218 -33 -345 -70 -512 -148 -140 -65 -360 -231 -453
-343 -88 -103 -198 -269 -226 -339 -59 -144 -103 -311 -108 -410 -2 -40 -2
-55 1 -33 10 91 18 44 18 -108 1 -237 33 -382 130 -582 78 -160 141 -249 273
-384 170 -174 342 -278 602 -365 207 -69 447 -88 635 -52 117 23 322 89 410
134 143 71 363 255 459 381 123 164 230 375 269 533 77 307 53 566 -77 853
-23 50 -29 71 -16 55 10 -14 25 -37 31 -52 6 -16 15 -28 20 -28 5 0 9 -6 9
-12 0 -7 9 -24 20 -38 34 -44 -31 124 -85 220 -122 216 -340 431 -550 543 -83
45 -277 123 -347 141 -154 39 -376 54 -503 34z m380 -57 c34 -7 35 -9 10 -9
-16 0 -43 4 -60 8 -42 11 -1 11 50 1z m-540 -21 c-16 -4 -41 -8 -55 -8 -22 0
-22 1 5 8 17 4 41 8 55 8 22 0 22 -1 -5 -8z m640 0 c25 -11 -1 -11 -35 0 -20
6 -21 8 -5 8 11 0 29 -3 40 -8z m-1025 -141 c-26 -17 -70 -40 -70 -35 0 7 64
46 75 46 6 0 3 -5 -5 -11z m1511 -86 c10 -12 5 -11 -18 6 -18 12 -33 24 -33
27 0 9 37 -15 51 -33z m40 -30 c13 -16 12 -17 -3 -4 -10 7 -18 15 -18 17 0 8
8 3 21 -13z m44 -33 c10 -11 16 -20 13 -20 -3 0 -13 9 -23 20 -10 11 -16 20
-13 20 3 0 13 -9 23 -20z m-1905 -73 c0 -2 -12 -14 -27 -28 l-28 -24 24 28
c23 25 31 32 31 24z m769 -8 c37 -13 51 -35 51 -83 0 -67 -95 -103 -147 -54
-34 32 -30 73 11 114 38 38 40 39 85 23z m1286 -69 c10 -11 16 -20 13 -20 -3
0 -13 9 -23 20 -10 11 -16 20 -13 20 3 0 13 -9 23 -20z m-1620 -76 c8 -4 23
-20 31 -36 27 -52 11 -80 -96 -177 -138 -126 -180 -144 -218 -96 -34 43 -36
86 -6 138 14 26 29 47 33 47 5 0 19 10 32 23 82 75 132 107 169 107 21 0 46
-3 55 -6z m1756 -101 c13 -16 12 -17 -3 -4 -10 7 -18 15 -18 17 0 8 8 3 21
-13z m-2428 -8 c-3 -9 -8 -14 -10 -11 -3 3 -2 9 2 15 9 16 15 13 8 -4z m2477
-70 c0 -11 -14 7 -31 40 -7 13 -3 12 10 -5 11 -14 21 -29 21 -35z m-2599 -208
c-10 -9 -11 -8 -5 6 3 10 9 15 12 12 3 -3 0 -11 -7 -18z m438 -221 c34 -36 46
-92 26 -122 -19 -29 -60 -47 -91 -40 -13 3 -36 18 -53 32 -42 35 -43 84 -2
125 38 37 88 40 120 5z m1841 -949 c0 -1 -39 -41 -87 -87 l-88 -85 85 88 c79
81 90 92 90 84z m-1819 -44 c13 -16 12 -17 -3 -4 -10 7 -18 15 -18 17 0 8 8 3
21 -13z m1639 -126 c0 -2 -10 -12 -22 -23 l-23 -19 19 23 c18 21 26 27 26 19z
m-50 -41 c0 -2 -8 -10 -17 -17 -16 -13 -17 -12 -4 4 13 16 21 21 21 13z"/>
<path d="M6310 7477 c0 -2 15 -16 33 -33 l32 -29 -29 33 c-28 30 -36 37 -36
29z"/>
</g>
</svg>
